<svg width="101" height="43" viewBox="0 0 101 43" fill="none" xmlns="http://www.w3.org/2000/svg">
<rect x="36.0929" y="1.28337" width="29" height="29" rx="4.5" stroke="black"/>
<rect x="70.8849" y="1.28336" width="29" height="29" rx="4.5" stroke="black"/>
<rect x="1.30139" y="1.28336" width="29" height="29" rx="4.5" stroke="black"/>
<path d="M18.7047 40.2234H17.7347L16.2447 38.1034L14.7547 40.2234H13.7847L15.7847 37.4734L13.8847 34.9034H14.8547L16.2447 36.8534L17.6347 34.9034H18.6047L16.7047 37.4734L18.7047 40.2234Z" fill="black"/>
<path d="M50.0021 35.3355V37.9605H49.5921V35.3355H50.0021ZM49.0371 37.3655L48.7971 37.6855C48.3221 37.4805 47.8371 37.1105 47.6321 36.6755C47.4321 37.1405 46.9421 37.5955 46.4421 37.8255L46.1821 37.5255C46.7821 37.2705 47.4121 36.7005 47.4121 35.9055V35.5105H47.8221V35.9005C47.8221 36.6955 48.5421 37.1805 49.0371 37.3655ZM50.0021 38.2255V39.8405L49.5921 39.8455V38.5855H46.9521V38.2255H50.0021ZM55.1229 36.5355V36.8855H54.4479V38.5705H54.0479V35.3355H54.4479V36.5355H55.1229ZM53.8179 37.2005V37.5655C53.2279 37.7055 52.4529 37.7705 51.8279 37.7705H51.0429V35.6155H53.1779V35.9655H51.4479V37.4105H51.8279C52.5129 37.4105 53.2279 37.3555 53.8179 37.2005ZM54.5729 39.3505V39.7105H51.6529V38.2405H52.0629V39.3505H54.5729Z" fill="black"/>
<path d="M83.3691 38.0255V38.9155H82.9491V38.0255H80.9841V37.6705H85.2341V38.0255H83.3691ZM84.7091 39.3555V39.7105H81.6091V38.4105H82.0241V39.3555H84.7091ZM83.1141 37.3205C82.3091 37.3205 81.8241 36.9055 81.8241 36.3305C81.8241 35.7555 82.3091 35.3405 83.1141 35.3405C83.9091 35.3405 84.3941 35.7555 84.3941 36.3305C84.3941 36.9055 83.9091 37.3205 83.1141 37.3205ZM83.1141 36.9755C83.6441 36.9755 83.9541 36.7255 83.9541 36.3305C83.9541 35.9355 83.6441 35.6855 83.1141 35.6855C82.5741 35.6855 82.2641 35.9355 82.2641 36.3305C82.2641 36.7255 82.5741 36.9755 83.1141 36.9755ZM89.7849 37.5205V37.8705H85.5349V37.5205H87.4949V37.0005H86.1499V35.5055H89.1549V35.8605H86.5549V36.6555H89.2099V37.0005H87.9149V37.5205H89.7849ZM87.6849 39.9755C86.8749 39.9755 86.3749 39.6155 86.3749 39.0755C86.3749 38.5405 86.8749 38.1805 87.6849 38.1805C88.4949 38.1805 88.9949 38.5405 88.9949 39.0755C88.9949 39.6155 88.4949 39.9755 87.6849 39.9755ZM87.6849 39.6305C88.2199 39.6305 88.5549 39.4255 88.5549 39.0755C88.5549 38.7305 88.2199 38.5255 87.6849 38.5255C87.1499 38.5255 86.8149 38.7305 86.8149 39.0755C86.8149 39.4255 87.1499 39.6305 87.6849 39.6305Z" fill="black"/>
<path d="M51.0929 1.28336H60.5929C63.0782 1.28336 65.0929 3.29807 65.0929 5.78336V25.7834C65.0929 28.2686 63.0782 30.2834 60.5929 30.2834H51.0929V1.28336Z" fill="#AFEB92" stroke="black"/>
<path d="M84.8849 1.28326H75.3849C72.8996 1.28326 70.8849 3.29798 70.8849 5.78326V25.7833C70.8849 28.2685 72.8996 30.2833 75.3849 30.2833H84.8849V1.28326Z" fill="#86BAEB" stroke="black"/>
</svg>
