<svg width="19" height="18" viewBox="0 0 19 18" fill="none" xmlns="http://www.w3.org/2000/svg">
<path d="M13.6986 11.608H12.8645L12.5688 11.3231C13.8359 9.84582 14.4905 7.83036 14.1315 5.68827C13.6352 2.75477 11.1857 0.412194 8.22937 0.0534209C3.76319 -0.495291 0.00441831 3.26128 0.553452 7.72484C0.912436 10.6794 3.25639 13.1275 6.19161 13.6235C8.33495 13.9823 10.3516 13.328 11.8298 12.0618L12.1148 12.3572V13.1909L16.6021 17.6755C17.035 18.1082 17.7424 18.1082 18.1753 17.6755C18.6082 17.2429 18.6082 16.5359 18.1753 16.1032L13.6986 11.608ZM7.36358 11.608C4.73456 11.608 2.61233 9.48705 2.61233 6.85956C2.61233 4.23207 4.73456 2.11109 7.36358 2.11109C9.99261 2.11109 12.1148 4.23207 12.1148 6.85956C12.1148 9.48705 9.99261 11.608 7.36358 11.608Z" fill="#949494"/>
</svg>
